#!OML:ASF H:\GeneralSubjects\Female5\Project 1\Capture day 1\Session 1\Female5.ASF
:FULLY-SPECIFIED
:DEGREES
132
root 26.6926 15.4404 1.92799 -68.9268 -85.5473 92.7484
lowerback 15.6541 -0.768496 -8.38651
upperback -8.76251 -3.15622 0.491584
thorax -18.7574 -0.339447 6.32543
lowerneck -20.1567 1.67867 3.17739
upperneck 22.8944 2.23835 -4.07296
head 10.8013 0.717937 -1.67835
rclavicle -1.31384e-014 2.78299e-015
rhumerus -65.0657 20.4987 -87.594
rradius 52.465
rwrist -15.3691
rhand -22.9831 -15.1424
rfingers 7.12502
rthumb 3.45945 -45.0941
lclavicle -1.31384e-014 2.78299e-015
lhumerus -33.4474 -18.4803 90.8879
lradius 96.689
lwrist 0.0278959
lhand -35.571 30.1458
lfingers 7.12502
lthumb -8.69579 59.9467
rfemur -58.1311 2.04038 20.0048
rtibia 46.2929
rfoot -23.5677 -15.189
rtoes -29.1531
lfemur 0.189894 -12.5787 -37.1086
ltibia 10.4128
lfoot -0.943342 -19.3545
ltoes -26.3086
133
root 26.0529 15.5457 1.88469 -72.3689 -86.2673 95.8685
lowerback 15.7362 -0.517998 -6.32536
upperback -9.13319 -2.46888 -0.16438
thorax -19.4871 -0.329943 4.18935
lowerneck -19.2428 1.46364 3.88798
upperneck 23.0814 1.82331 -4.46276
head 10.6886 0.544113 -2.00462
rclavicle -3.40419e-015 3.60794e-014
rhumerus -66.0826 18.5575 -87.6488
rradius 51.9116
rwrist -15.1247
rhand -23.2507 -15.1508
rfingers 7.12502
rthumb 3.20098 -45.1065
lclavicle -3.40419e-015 3.60794e-014
lhumerus -35.6033 -21.3695 91.2531
lradius 100.057
lwrist 0.150276
lhand -35.5856 29.6227
lfingers 7.12502
lthumb -8.70992 59.423
rfemur -56.5497 6.26284 18.3584
rtibia 37.2696
rfoot -23.0803 -17.0994
rtoes -31.8545
lfemur 4.1366 -14.294 -37.1544
ltibia 7.48864
lfoot -8.7121 -17.8014
ltoes -21.0708
134
root 25.3965 15.6381 1.8385 -76.8079 -86.8761 100.291
lowerback 15.4234 -1.06029 -6.45
upperback -9.19695 -3.00736 1.09517
thorax -19.2128 -0.433124 5.90983
lowerneck -20.1229 2.45 3.57891
upperneck 23.3708 3.66667 -5.85427
head 11.0833 1.15906 -2.18646
rclavicle 3.75206e-015 -1.17283e-014
rhumerus -65.4505 22.0853 -87.4246
rradius 51.3744
rwrist -16.0289
rhand -23.2866 -16.5027
rfingers 7.12502
rthumb 3.1663 -46.4589
lclavicle 3.75206e-015 -1.17283e-014
lhumerus -36.9147 -19.7054 92.121
lradius 102.167
lwrist -0.865492
lhand -36.0162 28.9282
lfingers 7.12502
lthumb -9.12546 58.7108
rfemur -55.4963 10.3113 16.667
rtibia 30.2635
rfoot -22.6556 -19.0407
rtoes -34.7893
lfemur 7.00861 -15.3002 -37.2145
ltibia 5.80969
lfoot -16.6988 -13.6359
ltoes -14.7022
135
root 24.7284 15.7155 1.79306 -84.7371 -87.2225 108.281
lowerback 15.3755 -0.948338 -5.49351
upperback -9.93104 -2.73434 0.854366
thorax -20.2424 -0.415251 5.03342
lowerneck -18.7963 2.55575 4.46105
upperneck 23.6554 3.71841 -6.47847
head 10.9671 1.18884 -2.56729
rclavicle -6.95746e-016 -4.91992e-015
rhumerus -66.1181 22.0733 -88.1308
rradius 51.4442
rwrist -17.1855
rhand -24.0566 -17.6526
rfingers 7.12502
rthumb 2.42271 -47.6186
lclavicle -6.95746e-016 -4.91992e-015
lhumerus -40.4241 -21.2058 92.959
lradius 103.769
lwrist -1.80504
lhand -36.4709 27.4682
lfingers 7.12502
lthumb -9.56417 57.2312
rfemur -54.6296 13.2902 15.6824
rtibia 25.9833
rfoot -23.0397 -17.9787
rtoes -30.0796
lfemur 8.04764 -14.0371 -36.7973
ltibia 6.65934
lfoot -20.7354 -9.32055
ltoes -14.8377
136
root 24.0568 15.7724 1.74736 -92.7947 -87.2947 116.326
lowerback 14.2529 -0.8479 -4.18174
upperback -9.65018 -2.24569 0.556205
thorax -19.1993 -0.463436 3.72131
lowerneck -19.8032 2.53745 3.88158
upperneck 23.694 3.86246 -6.45874
head 11.1748 1.19136 -2.43773
rclavicle -5.81445e-015 4.02539e-015
rhumerus -63.8198 22.5193 -88.1205
rradius 50.9858
rwrist -18.3675
rhand -24.8148 -15.504
rfingers 7.12502
rthumb 1.69041 -45.477
lclavicle -5.81445e-015 4.02539e-015
lhumerus -41.7939 -21.8701 93.3656
lradius 104.221
lwrist -2.71476
lhand -35.8625 26.6811
lfingers 7.12502
lthumb -8.97716 56.4701
rfemur -53.5603 14.5483 16.2247
rtibia 24.8211
rfoot -22.4027 -17.5167
rtoes -32.3802
lfemur 7.57588 -11.3098 -35.934
ltibia 9.50026
lfoot -24.0103 -3.64388
ltoes -16.7433
137
root 23.3851 15.8024 1.6983 -96.1854 -87.0353 119.528
lowerback 14.0777 -0.936102 -3.88936
upperback -9.75729 -2.28499 0.664046
thorax -19.2199 -0.510326 3.69219
lowerneck -20.6361 2.87629 3.67981
upperneck 24.3946 4.63663 -7.25586
head 11.6734 1.38184 -2.59185
rclavicle 2.11209e-014 1.19271e-014
rhumerus -61.9539 24.5587 -88.6683
rradius 50.5364
rwrist -19.7384
rhand -25.9114 -13.6576
rfingers 7.12502
rthumb 0.631352 -43.6364
lclavicle 2.11209e-014 1.19271e-014
lhumerus -43.7689 -21.0425 94.1403
lradius 103.039
lwrist -3.0018
lhand -34.6759 25.3339
lfingers 7.12502
lthumb -7.83194 55.1689
rfemur -51.9058 15.0277 17.1045
rtibia 25.3977
rfoot -21.5385 -17.1319
rtoes -35.3276
lfemur 5.57299 -7.45961 -34.8622
ltibia 15.2645
lfoot -25.7484 2.32102
ltoes -15.8796
138
root 22.7116 15.7969 1.64618 -93.0559 -86.608 115.847
lowerback 13.8368 -0.859179 -3.68093
upperback -9.67087 -2.14084 0.499507
thorax -18.9672 -0.500188 3.32491
lowerneck -21.0114 2.90331 3.37454
upperneck 24.7679 4.944 -7.8157
head 11.9253 1.39354 -2.71034
rclavicle 8.49804e-015 -1.45113e-014
rhumerus -59.846 26.0582 -89.1193
rradius 50.9041
rwrist -20.1702
rhand -26.4023 -15.5932
rfingers 7.12502
rthumb 0.15721 -45.5728
lclavicle 8.49804e-015 -1.45113e-014
lhumerus -46.2244 -20.0514 94.9401
lradius 101.93
lwrist -2.69099
lhand -35.0697 25.4102
lfingers 7.12502
lthumb -8.21208 55.2306
rfemur -48.6438 15.4694 17.6643
rtibia 25.562
rfoot -20.7535 -15.2873
rtoes -24.8919
lfemur 2.77752 -4.11105 -34.1692
ltibia 23.5044
lfoot -26.7138 7.76772
ltoes -22.623
